<?xml version="1.0" encoding="UTF-8"?>
<svg id="svg2" xmlns="http://www.w3.org/2000/svg" version="1.1" xmlns:cc="http://creativecommons.org/ns#" xmlns:dc="http://purl.org/dc/elements/1.1/" xmlns:inkscape="http://www.inkscape.org/namespaces/inkscape" xmlns:rdf="http://www.w3.org/1999/02/22-rdf-syntax-ns#" xmlns:svg="http://www.w3.org/2000/svg" viewBox="0 0 709 533">
  <!-- Generator: Adobe Illustrator 29.0.0, SVG Export Plug-In . SVG Version: 2.1.0 Build 186)  -->
  <defs>
    <style>
      .st0 {
        fill: #ff0;
        stroke: #0d0f11;
        stroke-width: .9px;
      }

      .st0, .st1, .st2, .st3 {
        fill-rule: evenodd;
      }

      .st0, .st4 {
        stroke-linecap: round;
      }

      .st5 {
        fill: #e72434;
        stroke: #e9451d;
      }

      .st5, .st6, .st7 {
        font-family: AdobeSongStd-Light-GBpc-EUC-H, 'Adobe Song Std';
        font-size: 36px;
        font-weight: 300;
      }

      .st8 {
        stroke: #c2c2c2;
      }

      .st8, .st9, .st10 {
        stroke-width: 1px;
      }

      .st11 {
        stroke-width: 3.2px;
      }

      .st11, .st12, .st9, .st13, .st1, .st14, .st2, .st15, .st3 {
        stroke: #000;
      }

      .st11, .st13, .st4, .st16, .st15 {
        fill: none;
      }

      .st12 {
        stroke-miterlimit: 4;
        stroke-width: 1px;
      }

      .st13 {
        stroke-width: 2.7px;
      }

      .st1 {
        fill: blue;
      }

      .st17 {
        font-size: 23.9px;
      }

      .st17, .st18, .st19 {
        isolation: isolate;
      }

      .st17, .st19 {
        font-family: ArialMT, Arial;
      }

      .st6 {
        fill: #e72a33;
        stroke: #e8401d;
      }

      .st19 {
        font-size: 25.7px;
      }

      .st4 {
        stroke: #ff631a;
        stroke-width: 6.9px;
      }

      .st10 {
        stroke: #c8c8c8;
      }

      .st2 {
        stroke-width: 1.1px;
      }

      .st2, .st3 {
        fill: #d00000;
      }

      .st16 {
        stroke: #e34343;
        stroke-width: 6.3px;
      }

      .st7 {
        fill: #e71e31;
        stroke: #e72328;
        stroke-miterlimit: 10;
      }

      .st15 {
        stroke-width: 2.6px;
      }
    </style>
  </defs>
  <g id="_x3C_defs">
    <inkscape:perspective id="perspective9"/>
  </g>
  <path id="path5197" class="st14" d="M643,402.5l-21.1-18.3-5.9,11.4,26.9,6.9h0Z"/>
  <path id="path5199" class="st10" d="M614.6,394.1c-1.5-.8-1.4-3.9.2-6.9s4.1-4.9,5.5-4.1h0c1.5.8,1.4,3.9-.2,6.9s-4.1,4.9-5.5,4.1h0Z"/>
  <g id="g5213">
    <path id="path5209" class="st14" d="M344.3,30.7l-6.4,27.1h12.8c0,0-6.4-27.1-6.4-27.1Z"/>
    <path id="path5211" class="st8" d="M338.1,58.4c0-1.7,2.8-3,6.2-3s6.2,1.3,6.2,3h0c0,1.7-2.8,3-6.2,3s-6.2-1.3-6.2-3h0Z"/>
  </g>
  <path id="path2391" class="st3" d="M555.2,144.6l96.4,5.2,27.4-15.6-92.5-23.5-31.3,33.9Z"/>
  <path id="path2393" class="st3" d="M585.2,110.7l-14.9-13-9-8.8-.8-.3-15.7-23.4-29.4,16.1,6,39.9,26.1,3.9,37.8-14.3Z"/>
  <path id="path2395" class="st2" d="M290.4,244.9l-80.4-162.7,35.2-19,137.8,127.5-92.6,54.2Z"/>
  <path id="path2398" class="st3" d="M341.5,291.9l323.2,27.4,36.5-23.5-258.1-65.2-101.7,61.3h0Z"/>
  <path id="path2389" class="st1" d="M518.4,121.8l-62.9,30-283.7,156.1s-10.5,4.4-14.8,8.1c-47.1,42.9-16.6,81.9,46.2,55.9l289.2-168.4,96-90.8c-.5-15.5-41.3,2.2-70.1,9.1Z"/>
  <path id="path3175" class="st0" d="M354.3,253.5c0,6.1-4.9,11-11,11s-11-4.9-11-11,4.9-11,11-11,11,4.9,11,11Z"/>
  <path id="path3177" class="st13" d="M344.1,252.8c-111.5,63.9-184.3,105.6-231.7,132.8M101.6,391.8l-78.1,44.8"/>
  <path id="path3181" class="st11" d="M344.1,252.8c99.7,50.1,163.7,82.2,204.7,102.8M560.4,361.4l61.7,31"/>
  <path id="path3183" class="st15" d="M343.1,252.6c.5-89.6.8-137.8,1-163.7M344.2,78.6v-19.8"/>
  <g id="text3185" class="st18">
    <text class="st17" transform="translate(355.6 106.5) scale(.9 1)"><tspan x="0" y="0">Yaw Axis</tspan></text>
  </g>
  <g id="text3189" class="st18">
    <text class="st19" transform="translate(6.9 464.9) scale(1 1)"><tspan x="0" y="0">Roll Axis</tspan></text>
  </g>
  <g id="text3193" class="st18">
    <text class="st19" transform="translate(442.7 429.2)"><tspan x="0" y="0">Pitch Axis</tspan></text>
  </g>
  <g id="g3201">
    <path id="path3197" class="st4" d="M382.7,60.7c.4,11.4-16.2,21.3-37,22-20.9.8-38.1-7.8-38.6-19.2-.3-7.2,6.4-14.1,17.5-18.3"/>
    <path id="path3199" class="st16" d="M324.2,56.9h0l1.1-12.6-10.8-2.3"/>
  </g>
  <g id="g4920">
    <path id="path4922" class="st4" d="M547.7,405.9c-9.6-6.2-8.1-25.5,3.4-43,11.4-17.5,28.4-26.6,37.9-20.4,6,3.9,7.9,13.4,4.9,24.9"/>
    <path id="path4924" class="st16" d="M584.6,360.2h0l9.7,8.2,8.1-7.5"/>
  </g>
  <g id="g4926">
    <path id="path4928" class="st4" d="M112.1,430.4c9.2-6.8,6.5-25.9-5.9-42.7-12.4-16.8-30-24.9-39.1-18.1-5.8,4.3-7.1,13.8-3.3,25.1"/>
    <path id="path4930" class="st16" d="M72.5,387.1h0l-9.2,8.7-8.5-7"/>
  </g>
  <path id="path4977" class="st3" d="M585.2,107.3l18.2-82.1-13,9.1-30,50.8-5.8,10.5-4.6,9.8-2.4,9.1-.3,7.1,37.8-14.3h0Z"/>
  <g id="g5221">
    <g id="g5229">
      <path id="path5217" class="st12" d="M19.7,438.8l26.6-8.3-6.6-11-20,19.3Z"/>
      <path id="path5219" class="st9" d="M46.6,430c-1.4.8-4-.9-5.7-3.8s-2-6-.6-6.9h0c1.4-.8,4,.9,5.7,3.8s2,6,.6,6.9h0Z"/>
    </g>
  </g>
  <text class="st7" transform="translate(616.9 432.8)"><tspan x="0" y="0">Y</tspan></text>
  <text class="st6" transform="translate(7 420.3)"><tspan x="0" y="0">X</tspan></text>
  <text class="st5" transform="translate(354.5 43.2)"><tspan x="0" y="0">Z</tspan></text>
</svg>